<svg xmlns="http://www.w3.org/2000/svg" version="1.1" xmlns:xlink="http://www.w3.org/1999/xlink" xmlns:svgjs="http://svgjs.dev/svgjs" width="1500" height="318" viewBox="0 0 1500 318"><g transform="matrix(1,0,0,1,-0.9090909090909918,0.4568316489642541)"><svg viewBox="0 0 396 84" data-background-color="#ffffff" preserveAspectRatio="xMidYMid meet" height="318" width="1500" xmlns="http://www.w3.org/2000/svg" xmlns:xlink="http://www.w3.org/1999/xlink"><g id="tight-bounds" transform="matrix(1,0,0,1,0.2400000000000091,-0.12067251104716092)"><svg viewBox="0 0 395.52 84.2413450220943" height="84.2413450220943" width="395.52"><g><svg viewBox="0 0 665.8576319976639 141.820243003413" height="84.2413450220943" width="395.52"><g transform="matrix(1,0,0,1,270.3376319976639,16.041621532069833)"><svg viewBox="0 0 395.52 109.73699993927333" height="109.73699993927333" width="395.52"><g id="textblocktransform"><svg viewBox="0 0 395.52 109.73699993927333" height="109.73699993927333" width="395.52" id="textblock"><g><svg viewBox="0 0 395.52 109.73699993927333" height="109.73699993927333" width="395.52"><g transform="matrix(1,0,0,1,0,0)"><svg width="395.52" viewBox="0.5 -34 174.71333333332498 47.8" height="109.73699993927333" data-palette-color="#50a060"><path d="M25.7 0.55L25.7 0.55Q24.15 0.55 23.08-0.78 22-2.1 21-5.15L21-5.15Q20.5-6.65 20.18-8.08 19.85-9.5 19.7-10.85L19.7-10.85Q19.05-9.85 18.53-9.53 18-9.2 17-9.2L17-9.2Q14.55-9.2 11.8-9.28 9.05-9.35 6.9-9.4L6.9-9.4Q6.8-8.5 6.73-7.58 6.65-6.65 6.65-5.75L6.65-5.75Q6.65-4.95 6.73-4.15 6.8-3.35 6.85-2.6L6.85-2.6Q7-1.2 5.75-0.35 4.5 0.5 2.65 0.5L2.65 0.5Q1.05 0.5 1.05-0.9L1.05-0.9Q1.05-1.75 1.5-3.45L1.5-3.45Q1.75-4.6 1.9-5.43 2.05-6.25 2.05-6.75L2.05-6.75Q2.05-8.15 1.2-8.65L1.2-8.65Q0.5-9.05 0.5-9.7L0.5-9.7Q0.5-10.3 0.78-11.15 1.05-12 1.5-12.73 1.95-13.45 2.35-13.75L2.35-13.75Q2.7-13.95 3.2-14.1 3.7-14.25 4.45-14.3L4.45-14.3Q6.4-19.9 8.83-23.98 11.25-28.05 14-30.28 16.75-32.5 19.6-32.5L19.6-32.5Q21.35-32.5 22.15-31.33 22.95-30.15 22.95-27.4L22.95-27.4 22.95-25.15Q22.95-20.1 23.7-15.85 24.45-11.6 25.55-8.95L25.55-8.95Q26.65-6.15 28.6-4.35L28.6-4.35Q29.2-3.85 29.4-3.48 29.6-3.1 29.6-2.7L29.6-2.7Q29.6-1.95 29.03-1.2 28.45-0.45 27.55 0.05 26.65 0.55 25.7 0.55ZM8.4-14.6L8.4-14.6Q10.85-14.7 12.7-14.78 14.55-14.85 15.8-14.85L15.8-14.85 19.3-14.85Q19.2-16.25 19.13-17.8 19.05-19.35 19.05-21.05L19.05-21.05 19.05-23.95Q19.05-25.4 18.73-25.88 18.4-26.35 17.5-26.35L17.5-26.35Q15.05-26.35 12.6-23.15 10.15-19.95 8.4-14.6ZM34.65 0.55L34.65 0.55Q32.85 0.55 33.05-0.65L33.05-0.65Q33.6-2.8 33.97-5.03 34.35-7.25 34.35-9.3L34.35-9.3Q34.35-11.95 34.02-13.18 33.7-14.4 33.15-14.88 32.6-15.35 31.8-15.6L31.8-15.6Q31.45-15.75 31.17-16 30.9-16.25 30.9-16.7L30.9-16.7Q30.9-17.4 31.45-18.25 32-19.1 33.02-19.73 34.05-20.35 35.35-20.35L35.35-20.35Q37.05-20.35 37.7-19.18 38.35-18 38.35-16.1L38.35-16.1Q38.35-14.85 38.1-13.3 37.85-11.75 37.6-10.5L37.6-10.5 37.75-10.45Q38.75-13.1 40.17-15.38 41.6-17.65 43.5-19.05 45.4-20.45 47.9-20.45L47.9-20.45Q50.55-20.45 51.95-18.85 53.35-17.25 53.35-14.85L53.35-14.85Q53.35-13.85 53.12-12.95 52.9-12.05 52.65-11.2L52.65-11.2Q52.4-10.4 52.22-9.55 52.05-8.7 52.05-7.85L52.05-7.85Q52.05-5 54.75-4L54.75-4Q55.45-3.7 55.45-3.1L55.45-3.1Q55.45-2.65 55.15-1.8 54.85-0.95 54.05-0.23 53.25 0.5 51.7 0.5L51.7 0.5Q49.7 0.5 48.6-0.93 47.5-2.35 47.5-4.55L47.5-4.55Q47.5-5.8 47.77-7.08 48.05-8.35 48.35-9.45L48.35-9.45Q48.55-10.3 48.72-11.13 48.9-11.95 48.9-12.6L48.9-12.6Q48.9-14.9 46.5-14.9L46.5-14.9Q44.45-14.9 42.9-13.38 41.35-11.85 40.25-9.55 39.15-7.25 38.45-4.9L38.45-4.9 38.45-3.7Q38.45-1.85 37.42-0.65 36.4 0.55 34.65 0.55ZM62.85-24.85L62.85-24.85Q61.45-24.9 60.6-25.7 59.75-26.5 59.75-27.95L59.75-27.95Q59.8-29.5 60.8-30.48 61.8-31.45 63.35-31.4L63.35-31.4Q64.8-31.35 65.62-30.55 66.45-29.75 66.4-28.3L66.4-28.3Q66.34-26.8 65.4-25.83 64.45-24.85 62.85-24.85ZM62.9 0.5L62.9 0.5Q61.4 0.5 60.55-0.33 59.7-1.15 59.7-3.15L59.7-3.15Q59.7-4.3 59.92-5.4 60.15-6.5 60.45-7.55L60.45-7.55Q60.8-8.65 61.02-9.8 61.25-10.95 61.25-12.25L61.25-12.25Q61.25-13.15 61-13.98 60.75-14.8 59.9-15.2L59.9-15.2Q59.25-15.55 58.77-15.93 58.3-16.3 58.3-16.9L58.3-16.9Q58.3-17.6 58.95-18.4 59.6-19.2 60.67-19.78 61.75-20.35 62.9-20.35L62.9-20.35Q64.15-20.35 64.72-19.7 65.3-19.05 65.5-18.05 65.7-17.05 65.7-16L65.7-16Q65.7-14.4 65.45-12.88 65.2-11.35 64.95-10.05L64.95-10.05Q64.75-9.1 64.65-8.3 64.55-7.5 64.55-6.8L64.55-6.8Q64.55-5.55 65.15-4.93 65.75-4.3 66.84-3.75L66.84-3.75Q67.3-3.5 67.3-3L67.3-3Q67.3-2.6 66.9-1.75 66.5-0.9 65.52-0.2 64.55 0.5 62.9 0.5ZM73.99 9.6L73.99 9.6Q73.04 9.6 72.54 9.13 72.04 8.65 72.09 7.4L72.09 7.4Q72.09 6.65 72.22 4.73 72.34 2.8 72.57 0.18 72.79-2.45 73.07-5.3 73.34-8.15 73.59-10.8 73.84-13.45 74.04-15.35L74.04-15.35Q73.54-15.3 73.09-15.28 72.64-15.25 72.19-15.15L72.19-15.15Q71.69-15.05 71.44-15.05L71.44-15.05Q70.84-15.05 70.64-15.78 70.44-16.5 70.44-17.15L70.44-17.15Q70.44-17.9 70.67-18.4 70.89-18.9 71.64-19.2L71.64-19.2Q72.09-19.4 72.82-19.55 73.54-19.7 74.34-19.8L74.34-19.8Q74.59-22.75 75.12-25.4 75.64-28.05 76.74-29.9L76.74-29.9Q77.89-31.8 79.87-32.9 81.84-34 83.89-34L83.89-34Q85.39-34 86.72-33.43 88.04-32.85 88.87-31.83 89.69-30.8 89.69-29.5L89.69-29.5Q89.69-28.55 89.22-27.95 88.74-27.35 88.14-27.35L88.14-27.35Q87.89-27.35 87.59-27.45 87.29-27.55 86.99-27.65L86.99-27.65Q86.44-27.9 85.62-28.08 84.79-28.25 83.84-28.25L83.84-28.25Q81.89-28.25 80.77-27.2 79.64-26.15 79.07-24.33 78.49-22.5 78.14-20.1L78.14-20.1Q79.19-20.2 80.39-20.3 81.59-20.4 82.34-20.4L82.34-20.4Q83.54-20.4 84.22-20.03 84.89-19.65 84.89-18.6L84.89-18.6Q84.89-17.95 84.67-17.07 84.44-16.2 83.99-15.53 83.54-14.85 82.94-14.85L82.94-14.85Q82.69-14.85 82.09-15L82.09-15Q81.44-15.1 80.39-15.25 79.34-15.4 77.74-15.45L77.74-15.45Q77.54-13.3 77.42-10.68 77.29-8.05 77.29-5.15L77.29-5.15Q77.29-2 77.49 0.3 77.69 2.6 77.89 4.05L77.89 4.05Q77.99 4.7 78.04 5.2 78.09 5.7 78.09 6L78.09 6Q78.09 7.45 77.39 8.22 76.69 9 75.74 9.3 74.79 9.6 73.99 9.6ZM90.54-24.85L90.54-24.85Q89.14-24.9 88.29-25.7 87.44-26.5 87.44-27.95L87.44-27.95Q87.49-29.5 88.49-30.48 89.49-31.45 91.04-31.4L91.04-31.4Q92.49-31.35 93.32-30.55 94.14-29.75 94.09-28.3L94.09-28.3Q94.04-26.8 93.09-25.83 92.14-24.85 90.54-24.85ZM90.59 0.5L90.59 0.5Q89.09 0.5 88.24-0.33 87.39-1.15 87.39-3.15L87.39-3.15Q87.39-4.3 87.62-5.4 87.84-6.5 88.14-7.55L88.14-7.55Q88.49-8.65 88.72-9.8 88.94-10.95 88.94-12.25L88.94-12.25Q88.94-13.15 88.69-13.98 88.44-14.8 87.59-15.2L87.59-15.2Q86.94-15.55 86.47-15.93 85.99-16.3 85.99-16.9L85.99-16.9Q85.99-17.6 86.64-18.4 87.29-19.2 88.37-19.78 89.44-20.35 90.59-20.35L90.59-20.35Q91.84-20.35 92.42-19.7 92.99-19.05 93.19-18.05 93.39-17.05 93.39-16L93.39-16Q93.39-14.4 93.14-12.88 92.89-11.35 92.64-10.05L92.64-10.05Q92.44-9.1 92.34-8.3 92.24-7.5 92.24-6.8L92.24-6.8Q92.24-5.55 92.84-4.93 93.44-4.3 94.54-3.75L94.54-3.75Q94.99-3.5 94.99-3L94.99-3Q94.99-2.6 94.59-1.75 94.19-0.9 93.22-0.2 92.24 0.5 90.59 0.5ZM101.54 0.55L101.54 0.55Q99.74 0.55 99.94-0.65L99.94-0.65Q100.49-2.8 100.86-5.03 101.24-7.25 101.24-9.3L101.24-9.3Q101.24-11.95 100.91-13.18 100.59-14.4 100.04-14.88 99.49-15.35 98.69-15.6L98.69-15.6Q98.34-15.75 98.06-16 97.79-16.25 97.79-16.7L97.79-16.7Q97.79-17.4 98.34-18.25 98.89-19.1 99.91-19.73 100.94-20.35 102.24-20.35L102.24-20.35Q103.94-20.35 104.59-19.18 105.24-18 105.24-16.1L105.24-16.1Q105.24-14.85 104.99-13.3 104.74-11.75 104.49-10.5L104.49-10.5 104.64-10.45Q105.64-13.1 107.06-15.38 108.49-17.65 110.39-19.05 112.29-20.45 114.79-20.45L114.79-20.45Q117.44-20.45 118.84-18.85 120.24-17.25 120.24-14.85L120.24-14.85Q120.24-13.85 120.01-12.95 119.79-12.05 119.54-11.2L119.54-11.2Q119.29-10.4 119.11-9.55 118.94-8.7 118.94-7.85L118.94-7.85Q118.94-5 121.64-4L121.64-4Q122.34-3.7 122.34-3.1L122.34-3.1Q122.34-2.65 122.04-1.8 121.74-0.95 120.94-0.23 120.14 0.5 118.59 0.5L118.59 0.5Q116.59 0.5 115.49-0.93 114.39-2.35 114.39-4.55L114.39-4.55Q114.39-5.8 114.66-7.08 114.94-8.35 115.24-9.45L115.24-9.45Q115.44-10.3 115.61-11.13 115.79-11.95 115.79-12.6L115.79-12.6Q115.79-14.9 113.39-14.9L113.39-14.9Q111.34-14.9 109.79-13.38 108.24-11.85 107.14-9.55 106.04-7.25 105.34-4.9L105.34-4.9 105.34-3.7Q105.34-1.85 104.31-0.65 103.29 0.55 101.54 0.55ZM129.74-24.85L129.74-24.85Q128.34-24.9 127.49-25.7 126.64-26.5 126.64-27.95L126.64-27.95Q126.69-29.5 127.69-30.48 128.69-31.45 130.24-31.4L130.24-31.4Q131.69-31.35 132.51-30.55 133.34-29.75 133.29-28.3L133.29-28.3Q133.24-26.8 132.29-25.83 131.34-24.85 129.74-24.85ZM129.79 0.5L129.79 0.5Q128.29 0.5 127.44-0.33 126.59-1.15 126.59-3.15L126.59-3.15Q126.59-4.3 126.81-5.4 127.04-6.5 127.34-7.55L127.34-7.55Q127.69-8.65 127.91-9.8 128.14-10.95 128.14-12.25L128.14-12.25Q128.14-13.15 127.89-13.98 127.64-14.8 126.79-15.2L126.79-15.2Q126.14-15.55 125.66-15.93 125.19-16.3 125.19-16.9L125.19-16.9Q125.19-17.6 125.84-18.4 126.49-19.2 127.56-19.78 128.64-20.35 129.79-20.35L129.79-20.35Q131.04-20.35 131.61-19.7 132.19-19.05 132.39-18.05 132.59-17.05 132.59-16L132.59-16Q132.59-14.4 132.34-12.88 132.09-11.35 131.84-10.05L131.84-10.05Q131.64-9.1 131.54-8.3 131.44-7.5 131.44-6.8L131.44-6.8Q131.44-5.55 132.04-4.93 132.64-4.3 133.74-3.75L133.74-3.75Q134.19-3.5 134.19-3L134.19-3Q134.19-2.6 133.79-1.75 133.39-0.9 132.41-0.2 131.44 0.5 129.79 0.5ZM145.23 0.65L145.23 0.65Q142.18 0.65 140.86-1.38 139.53-3.4 139.53-6.6L139.53-6.6Q139.53-7.75 139.66-8.85 139.78-9.95 139.93-11.05L139.93-11.05Q140.08-12.15 140.23-13.2 140.38-14.25 140.48-15.2L140.48-15.2Q139.43-14.9 138.38-14.9L138.38-14.9Q137.28-14.9 137.28-15.8L137.28-15.8Q137.28-16.75 138.13-18.13 138.98-19.5 140.26-20.85 141.53-22.2 142.81-23.13 144.08-24.05 144.98-24.05L144.98-24.05Q146.08-24.05 146.08-22.15L146.08-22.15Q146.08-21.65 146.01-21.13 145.93-20.6 145.83-20.05L145.83-20.05Q146.78-20.25 147.76-20.4 148.73-20.55 149.63-20.55L149.63-20.55Q150.78-20.55 151.41-20.15 152.03-19.75 152.03-18.6L152.03-18.6Q152.03-17.4 151.46-16.2 150.88-15 150.18-15L150.18-15Q150.03-15 149.68-15.05 149.33-15.1 148.83-15.2L148.83-15.2Q148.18-15.35 147.18-15.5 146.18-15.65 144.78-15.65L144.78-15.65Q144.43-14.1 144.16-12.48 143.88-10.85 143.88-9.55L143.88-9.55Q143.88-6.65 145.33-5.6 146.78-4.55 149.53-4.55L149.53-4.55Q150.38-4.55 150.73-4.28 151.08-4 151.08-3.3L151.08-3.3Q151.08-1.65 149.38-0.5 147.68 0.65 145.23 0.65ZM156.08 13.8L156.08 13.8Q154.03 13.8 152.56 12.7 151.08 11.6 151.08 9.75L151.08 9.75Q151.08 8.3 151.96 7.28 152.83 6.25 154.13 6.25L154.13 6.25Q154.73 6.25 154.98 6.45 155.23 6.65 155.38 6.9L155.38 6.9Q155.78 7.55 156.31 8.03 156.83 8.5 157.73 8.5L157.73 8.5Q158.93 8.5 160.06 7.65 161.18 6.8 162.13 5.7L162.13 5.7Q162.98 4.75 164.18 2.98 165.38 1.2 166.58-1.05L166.58-1.05Q165.48-0.1 164.53 0.33 163.58 0.75 162.73 0.75L162.73 0.75Q161.68 0.75 160.68-0.03 159.68-0.8 159.43-2.95L159.43-2.95Q159.28-4.6 158.86-6.6 158.43-8.6 157.81-10.48 157.18-12.35 156.28-13.65L156.28-13.65Q155.93-14.25 155.48-14.55 155.03-14.85 154.18-14.95L154.18-14.95Q153.58-15 153.41-15.3 153.23-15.6 153.23-16.25L153.23-16.25Q153.23-18.05 154.23-19.15 155.23-20.25 156.93-20.25L156.93-20.25Q158.98-20.25 159.88-18.68 160.78-17.1 161.43-14.85L161.43-14.85Q161.68-13.95 161.96-12.48 162.23-11 162.46-9.3 162.68-7.6 162.78-6.05L162.78-6.05Q162.83-4.95 164.03-4.95L164.03-4.95Q165.63-4.95 167.08-5.95 168.53-6.95 169.46-8.55 170.38-10.15 170.38-11.9L170.38-11.9Q170.38-12.9 170.13-13.7 169.88-14.5 169.28-15.1L169.28-15.1Q168.78-15.7 168.48-16.07 168.18-16.45 168.18-16.95L168.18-16.95Q168.18-17.8 168.98-18.55 169.78-19.3 170.91-19.8 172.03-20.3 172.88-20.3L172.88-20.3Q174.38-20.3 174.88-18.88 175.38-17.45 175.13-15.75L175.13-15.75Q174.83-13.4 173.93-10.2 173.03-7 171.61-3.5 170.18 0 168.36 3.28 166.53 6.55 164.48 9L164.48 9Q162.73 11.15 160.58 12.48 158.43 13.8 156.08 13.8Z" opacity="1" transform="matrix(1,0,0,1,0,0)" fill="#50a060" class="wordmark-text-0" data-fill-palette-color="primary" id="text-0"></path></svg></g></svg></g></svg></g></svg></g><g><svg viewBox="0 0 244.43136 141.820243003413" height="141.820243003413" width="244.43136"><g><svg xmlns="http://www.w3.org/2000/svg" xmlns:xlink="http://www.w3.org/1999/xlink" version="1.1" x="0" y="0" viewBox="20.7 33 58.599999999999994 34" enable-background="new 0 0 100 100" xml:space="preserve" height="141.820243003413" width="244.43136" class="icon-icon-0" data-fill-palette-color="accent" id="icon-0"><path d="M50 33C37.443 33 26.65 40.076 20.7 50 26.645 59.915 37.433 67 50 67 62.558 67 73.35 59.924 79.3 50 73.354 40.085 62.567 33 50 33M25.4 50C27.1 47.6 32.1 41.7 40 38.8 37 41.5 35 45.5 35 50S37 58.5 40.1 61.2C32.1 58.3 27.2 52.4 25.4 50M59.9 61.2C63 58.5 65 54.5 65 50S63 41.5 59.9 38.8C67.9 41.8 72.799 47.6 74.5 50 72.8 52.4 67.9 58.3 59.9 61.2" fill="#50a060" data-fill-palette-color="accent"></path></svg></g></svg></g></svg></g><defs></defs></svg><rect width="395.52" height="84.2413450220943" fill="none" stroke="none" visibility="hidden"></rect></g></svg></g></svg>